<?xml version="1.0" standalone="no"?>
<!DOCTYPE svg PUBLIC "-//W3C//DTD SVG 20010904//EN"
 "http://www.w3.org/TR/2001/REC-SVG-20010904/DTD/svg10.dtd">
<svg version="1.0" xmlns="http://www.w3.org/2000/svg"
 width="300.000000pt" height="300.000000pt" viewBox="0 0 300.000000 300.000000"
 preserveAspectRatio="xMidYMid meet">
<metadata>
Created by potrace 1.10, written by Peter Selinger 2001-2011
</metadata>
<g transform="translate(0.000000,300.000000) scale(0.100000,-0.100000)"
fill="#000000" stroke="none">
<path d="M1320 2157 c-36 -12 -76 -31 -88 -42 -34 -28 -77 -94 -90 -135 -7
-21 -13 -174 -16 -385 -3 -192 -8 -386 -12 -431 -10 -116 11 -180 79 -248 76
-75 175 -106 225 -70 22 15 23 18 22 246 -1 126 2 233 5 236 4 4 59 10 123 13
135 6 174 21 238 91 70 76 79 114 79 333 0 178 -1 193 -23 236 -31 64 -85 117
-151 148 -51 24 -69 26 -191 28 -116 2 -144 -1 -200 -20z m386 -44 c54 -29
117 -101 132 -151 16 -52 16 -362 0 -414 -15 -50 -79 -123 -132 -150 -35 -19
-64 -22 -207 -28 -163 -5 -168 -6 -215 -36 -53 -32 -99 -91 -110 -139 -6 -27
-3 -25 24 16 34 53 82 93 152 125 41 19 49 20 54 7 3 -8 6 -120 6 -249 0 -266
8 -247 -91 -218 -112 33 -190 158 -174 278 3 28 6 213 5 411 0 254 3 370 11
395 17 48 57 103 96 130 64 44 99 50 258 47 132 -2 155 -5 191 -24z"/>
</g>
</svg>
